<svg width="512" height="512" viewBox="0 0 512 512" fill="none" xmlns="http://www.w3.org/2000/svg">
  <!-- Concept C: Nexus — Connected nodes W -->
  <rect width="512" height="512" rx="96" fill="#0A0A0A"/>
  <polyline points="132,156 208,372 256,208 304,372 380,156" stroke="white" stroke-width="12" fill="none" opacity="0.08" stroke-linecap="round" stroke-linejoin="round"/>
  <line x1="132" y1="156" x2="208" y2="372" stroke="white" stroke-width="3.5" opacity="0.55" stroke-linecap="round"/>
  <line x1="208" y1="372" x2="256" y2="208" stroke="white" stroke-width="3.5" opacity="0.55" stroke-linecap="round"/>
  <line x1="256" y1="208" x2="304" y2="372" stroke="white" stroke-width="3.5" opacity="0.55" stroke-linecap="round"/>
  <line x1="304" y1="372" x2="380" y2="156" stroke="white" stroke-width="3.5" opacity="0.55" stroke-linecap="round"/>
  <circle cx="132" cy="156" r="14" fill="white" opacity="0.95"/>
  <circle cx="208" cy="372" r="14" fill="white" opacity="0.95"/>
  <circle cx="256" cy="208" r="14" fill="white" opacity="0.95"/>
  <circle cx="304" cy="372" r="14" fill="white" opacity="0.95"/>
  <circle cx="380" cy="156" r="14" fill="white" opacity="0.95"/>
  <circle cx="132" cy="156" r="5" fill="#0A0A0A"/>
  <circle cx="208" cy="372" r="5" fill="#0A0A0A"/>
  <circle cx="256" cy="208" r="5" fill="#0A0A0A"/>
  <circle cx="304" cy="372" r="5" fill="#0A0A0A"/>
  <circle cx="380" cy="156" r="5" fill="#0A0A0A"/>
</svg>
